<svg width="1em" height="1em" fill="none" viewBox="0 0 32 32" xmlns="http://www.w3.org/2000/svg" class="size-5 text-[rgba(77,58,164,0.96)]"><g clip-path="url(#clip0_1268_5316)"><path d="M32 0H0V32H32V0Z" fill="#03061E"></path><path d="M23.9574 7.30092C21.2603 6.40753 18.9406 8.30272 18.3999 10.0372C18.3999 10.0372 16.4538 16.287 15.6244 18.8954C15.2286 20.1388 14.2477 22.175 12.4009 22.175C10.8962 22.175 10.123 20.7631 9.79645 19.922L7.55384 13.9426C7.29392 13.313 7.56559 12.0565 8.60788 11.6803C9.72069 11.2807 10.4364 12.2119 10.6219 12.7057L13.4157 19.8632C14.0818 19.0051 14.505 17.6088 14.7806 16.6201L12.9455 11.8044C12.0756 9.55659 9.77686 8.53521 7.64396 9.32019C5.91726 9.95627 4.25588 12.1349 5.15971 14.8725L7.47416 20.8258C7.82551 21.7283 9.21392 24.675 12.3512 24.675C16.1168 24.675 17.53 21.4645 18.3137 18.9267C18.7055 17.6572 20.8554 10.7935 20.8554 10.7935C21.1675 9.76819 22.4371 9.473 23.2299 9.73161C23.7889 9.91316 24.7999 10.6851 24.4733 11.8815C24.412 12.0996 22.6983 17.6219 22.0662 19.3016C21.7357 20.178 20.8985 22.081 18.9929 21.8159C18.4116 23.1024 17.9297 23.8495 17.1996 24.5208C19.5767 25.6467 23.0418 24.513 24.5008 20.1048C25.0428 18.4657 26.9458 12.5554 26.9458 12.5554C27.4996 10.7399 26.5122 8.14729 23.9574 7.30092Z" fill="url(#paint0_linear_1268_5316)"></path><path d="M13.4158 19.8628C14.0819 19.0047 14.5051 17.6085 14.7807 16.6197L12.9848 11.9072C12.2089 12.2024 11.437 12.5093 10.669 12.8241L13.4158 19.8628Z" fill="url(#paint1_linear_1268_5316)"></path><path d="M23.6244 14.5928C23.3867 15.3111 22.2151 18.8991 22.0636 19.3013C21.7332 20.1778 20.8959 22.0808 18.9903 21.8156C18.4091 23.1022 17.9271 23.8493 17.197 24.5206C19.5741 25.6465 23.0393 24.5128 24.4982 20.1046C24.6327 19.6971 24.8522 19.0244 25.1056 18.2447L23.6244 14.5928Z" fill="url(#paint2_linear_1268_5316)"></path></g><defs><linearGradient id="paint0_linear_1268_5316" gradientUnits="userSpaceOnUse" x1="5.60713" x2="29.0877" y1="10.4362" y2="21.2297"><stop stop-color="#40EDD8"></stop><stop offset="0.0241" stop-color="#38E7E2"></stop><stop offset="0.0844" stop-color="#28DAF7"></stop><stop offset="0.1241" stop-color="#22D5FF"></stop><stop offset="0.3602" stop-color="#1ABFFF"></stop><stop offset="0.8502" stop-color="#0786FE"></stop><stop offset="0.9088" stop-color="#047FFE"></stop></linearGradient><linearGradient id="paint1_linear_1268_5316" gradientUnits="userSpaceOnUse" x1="18.1411" x2="13.5425" y1="21.6824" y2="16.2867"><stop offset="3.59356e-07" stop-color="#8455F5"></stop><stop offset="1" stop-color="#8455F5" stop-opacity="0"></stop></linearGradient><linearGradient id="paint2_linear_1268_5316" gradientUnits="userSpaceOnUse" x1="13.0057" x2="19.7437" y1="23.981" y2="20.7646"><stop offset="3.59356e-07" stop-color="#8455F5"></stop><stop offset="1" stop-color="#8455F5" stop-opacity="0"></stop></linearGradient><clipPath id="clip0_1268_5316"><rect height="32" width="32" fill="currentColor" rx="4"></rect></clipPath></defs></svg>